<?xml version="1.0" encoding="UTF-8" standalone="no"?>
<svg width="25px" height="25px" viewBox="0 0 25 25" version="1.1" xmlns="http://www.w3.org/2000/svg" xmlns:xlink="http://www.w3.org/1999/xlink">
    <!-- Generator: Sketch 3.6.1 (26313) - http://www.bohemiancoding.com/sketch -->
    <title>Fill 14</title>
    <desc>Created with Sketch.</desc>
    <defs></defs>
    <g id="Page-1" stroke="none" stroke-width="1" fill="none" fill-rule="evenodd">
        <g id="Artboard-1" transform="translate(-24.000000, -18.000000)" fill="#DDDDDD">
            <g id="Group-16" transform="translate(24.000000, 18.000000)">
                <path d="M18.1075329,11.1975329 L13.556875,8.15411184 L13.556875,3.25805921 L21.7812171,8.740625 L18.1075329,11.1975329 Z M19.9953618,12.4603618 L22.6216776,10.7037829 L22.6216776,14.2166118 L19.9953618,12.4603618 Z M13.556875,16.7666118 L18.1075329,13.7231908 L21.7812171,16.1800987 L13.556875,21.6626645 L13.556875,16.7666118 Z M6.90720395,13.7231908 L11.4578618,16.7666118 L11.4578618,21.6626645 L3.23384868,16.1800987 L6.90720395,13.7231908 Z M5.019375,12.4603618 L2.39338816,14.2166118 L2.39338816,10.7037829 L5.019375,12.4603618 Z M11.4578618,8.15411184 L6.90720395,11.1975329 L3.23384868,8.740625 L11.4578618,3.25805921 L11.4578618,8.15411184 Z M12.5075329,14.9432566 L8.79503289,12.4603618 L12.5075329,9.97713816 L16.2200329,12.4603618 L12.5075329,14.9432566 Z M24.7029276,8.55674342 C24.6973355,8.52680921 24.6924013,8.49753289 24.6845066,8.46858553 C24.6795724,8.45115132 24.6736513,8.43470395 24.6680592,8.41759868 C24.6598355,8.39194079 24.6516118,8.36628289 24.6410855,8.34095395 C24.6338487,8.32384868 24.625625,8.30674342 24.6177303,8.28996711 C24.6065461,8.26628289 24.5950329,8.24292763 24.581875,8.22023026 C24.5723355,8.20345395 24.5621382,8.18766447 24.5519408,8.17154605 C24.5377961,8.14983553 24.5233224,8.12845395 24.5075329,8.10773026 C24.4960197,8.09259868 24.4841776,8.07746711 24.4716776,8.06266447 C24.4552303,8.04292763 24.4374671,8.02417763 24.419375,8.00575658 C24.4055592,7.99161184 24.3917434,7.97779605 24.3775987,7.96463816 C24.3585197,7.94753289 24.3384539,7.93108553 24.3180592,7.91496711 C24.3022697,7.90279605 24.2868092,7.89029605 24.2703618,7.87911184 C24.2647697,7.87483553 24.2591776,7.86990132 24.2532566,7.86595395 L13.0894408,0.423519737 C12.7371382,0.188322368 12.2775987,0.188322368 11.9252961,0.423519737 L0.761809211,7.86595395 C0.755559211,7.86990132 0.750296053,7.87483553 0.744375,7.87911184 C0.727927632,7.89029605 0.712467105,7.90279605 0.696677632,7.91496711 C0.676611842,7.93108553 0.656217105,7.94753289 0.637467105,7.96463816 C0.622993421,7.97779605 0.609177632,7.99161184 0.595690789,8.00575658 C0.577269737,8.02417763 0.559835526,8.04292763 0.543059211,8.06266447 C0.530559211,8.07746711 0.518717105,8.09259868 0.507203947,8.10773026 C0.491414474,8.12845395 0.476940789,8.14983553 0.462796053,8.17154605 C0.452598684,8.18766447 0.442401316,8.20345395 0.433190789,8.22023026 C0.419703947,8.24292763 0.408190789,8.26628289 0.397335526,8.28996711 C0.389440789,8.30674342 0.380888158,8.32384868 0.373980263,8.34095395 C0.363782895,8.36628289 0.354901316,8.39194079 0.346677632,8.41759868 C0.341085526,8.43470395 0.335164474,8.45115132 0.330559211,8.46858553 C0.322993421,8.49753289 0.317401316,8.52680921 0.312138158,8.55674342 C0.309506579,8.571875 0.305888158,8.58667763 0.303585526,8.60180921 C0.297664474,8.64720395 0.294375,8.69292763 0.294375,8.73898026 L0.294375,16.1814145 C0.294375,16.2277961 0.297664474,16.2731908 0.303585526,16.3185855 C0.305888158,16.3340461 0.309506579,16.3488487 0.312138158,16.3639803 C0.317401316,16.3932566 0.322993421,16.4228618 0.330559211,16.4518092 C0.335164474,16.4692434 0.341085526,16.4860197 0.346677632,16.5027961 C0.354901316,16.5287829 0.363782895,16.5544408 0.373980263,16.5797697 C0.380888158,16.5972039 0.389440789,16.6136513 0.397335526,16.6304276 C0.408190789,16.6541118 0.419703947,16.6774671 0.433190789,16.7004934 C0.442401316,16.7169408 0.452598684,16.7330592 0.462796053,16.7485197 C0.476940789,16.7705592 0.491414474,16.7916118 0.507203947,16.8126645 C0.518717105,16.8284539 0.530559211,16.8432566 0.543059211,16.8580592 C0.559835526,16.8774671 0.577269737,16.8965461 0.595690789,16.9146382 C0.609177632,16.9284539 0.622993421,16.9425987 0.637467105,16.9554276 C0.656217105,16.9728618 0.676611842,16.9896382 0.696677632,17.0057566 C0.712467105,17.0179276 0.727927632,17.0300987 0.744375,17.0416118 C0.750296053,17.0458882 0.755559211,17.0504934 0.761809211,17.0544408 L11.9252961,24.496875 C12.1016118,24.6146382 12.3042434,24.6735197 12.5075329,24.6735197 C12.7104934,24.6735197 12.9134539,24.6146382 13.0894408,24.496875 L24.2532566,17.0544408 C24.2591776,17.0504934 24.2647697,17.0458882 24.2703618,17.0416118 C24.2868092,17.0300987 24.3022697,17.0179276 24.3180592,17.0057566 C24.3384539,16.9896382 24.3585197,16.9728618 24.3775987,16.9554276 C24.3917434,16.9425987 24.4055592,16.9284539 24.419375,16.9146382 C24.4374671,16.8965461 24.4552303,16.8774671 24.4716776,16.8580592 C24.4841776,16.8432566 24.4960197,16.8284539 24.5075329,16.8126645 C24.5233224,16.7916118 24.5377961,16.7705592 24.5519408,16.7485197 C24.5621382,16.7330592 24.5723355,16.7169408 24.581875,16.7004934 C24.5950329,16.6774671 24.6065461,16.6541118 24.6177303,16.6304276 C24.625625,16.6136513 24.6338487,16.5972039 24.6410855,16.5797697 C24.6516118,16.5544408 24.6598355,16.5287829 24.6680592,16.5027961 C24.6736513,16.4860197 24.6795724,16.4692434 24.6845066,16.4518092 C24.6924013,16.4228618 24.6973355,16.3932566 24.7029276,16.3639803 C24.7055592,16.3488487 24.7091776,16.3340461 24.7111513,16.3185855 C24.7170724,16.2731908 24.7206908,16.2277961 24.7206908,16.1814145 L24.7206908,8.73898026 C24.7206908,8.69292763 24.7170724,8.64720395 24.7111513,8.60180921 C24.7091776,8.58667763 24.7055592,8.571875 24.7029276,8.55674342 L24.7029276,8.55674342 Z" id="Fill-14"></path>
            </g>
        </g>
    </g>
</svg>